# xmcd
# 
# Track frame offsets:
#     183
#     18353
#     42748
#     62470
#     73970
#     89918
#     102393
#     124175
#     138718
#     157425
#     182250
#     194825
#     209793
#     221420
#     234948
#     250053
# 
# Disc length: 3537
# 
# Revision: 4
# Processed by: cddbd v1.5.2PL0 Copyright (c) Steve Scherf et al.
# Submitted via: fre:ac v1.0.31
# 
DISCID=030dcf10
DTITLE=Louis Armstrong - Satchmo
DYEAR=1987
DGENRE=Blues
TTITLE0=Back O' Town Blues
TTITLE1=I Want A Big Butter And Egg Man
TTITLE2=(Back Home In) Indiana
TTITLE3=Tiger Rag
TTITLE4=(What Did I Have To Do To Get) Black And Blue
TTITLE5=C'est Si Bon
TTITLE6=St.james Infirmary
TTITLE7=When The Saints Go Marching In
TTITLE8=Someday You'll Be Sorry
TTITLE9=Sweethearts On Parade
TTITLE10=Jelly Roll Blues
TTITLE11=Chimes Blues
TTITLE12=Dipper Mouth Blues
TTITLE13=Snake Rag
TTITLE14=New Orleans Stomp
TTITLE15=Bye And Bye
EXTD=YEAR: 1987 ID3G: 0
EXTT0=
EXTT1=
EXTT2=
EXTT3=
EXTT4=
EXTT5=
EXTT6=
EXTT7=
EXTT8=
EXTT9=
EXTT10=
EXTT11=
EXTT12=
EXTT13=
EXTT14=
EXTT15=
PLAYORDER=
